<svg height="511pt" viewBox="-168 1 511 511.999" width="511pt" xmlns="http://www.w3.org/2000/svg"><path d="m168 424.5c0 44.179688-35.820312 80-80 80s-80-35.820312-80-80c0-27.058594 13.441406-50.980469 34-65.460938v-305.539062c0-25.410156 20.589844-46 46-46 12.699219 0 24.199219 5.148438 32.53125 13.46875 8.316406 8.332031 13.46875 19.832031 13.46875 32.53125v305.539062c20.558594 14.480469 34 38.402344 34 65.460938zm0 0" fill="#78909c"/><path d="m134 359.039062v-305.539062c0-12.699219-5.152344-24.199219-13.46875-32.53125-8.332031-8.320312-19.832031-13.46875-32.53125-13.46875-5.253906 0-10.300781.894531-15.003906 2.515625 6.667968 2.300781 12.648437 6.074219 17.535156 10.953125 8.316406 8.332031 13.46875 19.832031 13.46875 32.53125v368c0 22.320312-1.457031 70.96875-33.238281 81.117188 5.554687 1.222656 11.316406 1.882812 17.238281 1.882812 44.179688 0 80-35.820312 80-80 0-27.058594-13.441406-50.980469-34-65.460938zm0 0" fill="#607d8b"/><path d="m88 474.5c-27.570312 0-50-22.429688-50-50 0-16.25 7.953125-31.550781 21.273438-40.933594l12.726562-8.960937v-321.105469c0-8.820312 7.175781-16 16-16 4.273438 0 8.296875 1.667969 11.332031 4.695312 3 3.007813 4.667969 7.03125 4.667969 11.304688v321.105469l12.726562 8.960937c13.320313 9.382813 21.273438 24.683594 21.273438 40.933594 0 27.570312-22.429688 50-50 50zm0 0" fill="#4fc3f7"/><path d="m116.726562 383.566406-12.726562-8.960937v-41.988281h-32v41.988281l-12.726562 8.960937c-13.320313 9.382813-21.273438 24.683594-21.273438 40.933594 0 27.570312 22.429688 50 50 50s50-22.429688 50-50c0-16.25-7.953125-31.550781-21.273438-40.933594zm0 0" fill="#f06292"/><path d="m141.5 355.257812v-15.136718h21.5c4.140625 0 7.5-3.359375 7.5-7.5 0-4.144532-3.359375-7.5-7.5-7.5h-21.5v-5.371094c0-4.144531-3.359375-7.5-7.5-7.5s-7.5 3.355469-7.5 7.5v39.289062c0 2.441407 1.1875 4.730469 3.179688 6.132813 19.296874 13.589844 30.820312 35.769531 30.820312 59.328125 0 39.976562-32.523438 72.5-72.5 72.5s-72.5-32.523438-72.5-72.5c0-23.558594 11.519531-45.738281 30.816406-59.328125 1.996094-1.402344 3.183594-3.691406 3.183594-6.132813v-305.539062c0-21.230469 17.269531-38.5 38.5-38.5 21.242188 0 38.5 17.1875 38.5 38.5v234.375c0 4.144531 3.359375 7.5 7.5 7.5s7.5-3.355469 7.5-7.5v-3.914062h21.5c4.140625 0 7.5-3.359376 7.5-7.5 0-4.144532-3.359375-7.5-7.5-7.5h-21.5v-41.152344h21.5c4.140625 0 7.5-3.355469 7.5-7.5 0-4.140625-3.359375-7.5-7.5-7.5h-21.5v-41.160156h21.5c4.140625 0 7.5-3.355469 7.5-7.5 0-4.140626-3.359375-7.5-7.5-7.5h-21.5v-41.148438h21.5c4.140625 0 7.5-3.355469 7.5-7.5s-3.359375-7.5-7.5-7.5h-21.5v-47c0-29.457031-23.828125-53.5-53.5-53.5-29.5 0-53.5 24-53.5 53.5v47h-21.5c-4.140625 0-7.5 3.355469-7.5 7.5s3.359375 7.5 7.5 7.5h21.5v41.148438h-21.5c-4.140625 0-7.5 3.359374-7.5 7.5 0 4.144531 3.359375 7.5 7.5 7.5h21.5v41.160156h-21.5c-4.140625 0-7.5 3.355468-7.5 7.5 0 4.144531 3.359375 7.5 7.5 7.5h21.5v41.152344h-21.5c-4.140625 0-7.5 3.355468-7.5 7.5 0 4.140624 3.359375 7.5 7.5 7.5h21.5v41.15625h-21.5c-4.140625 0-7.5 3.359374-7.5 7.5 0 4.144531 3.359375 7.5 7.5 7.5h21.5v15.140624c-21.359375 16.535157-34 42.128907-34 69.242188 0 48.246094 39.25 87.5 87.5 87.5 48.246094 0 87.5-39.253906 87.5-87.5 0-27.109375-12.640625-52.707031-34-69.242188zm0 0"/><path d="m88 467c-7.59375 0-15.046875-2.035156-21.558594-5.886719-3.5625-2.101562-8.164062-.925781-10.273437 2.640625-2.109375 3.5625-.925781 8.164063 2.636719 10.273438 8.824218 5.214844 18.917968 7.972656 29.195312 7.972656 31.707031 0 57.5-25.792969 57.5-57.5 0-18.6875-9.140625-36.28125-24.457031-47.0625l-9.542969-6.722656v-317.214844c0-13.097656-10.613281-23.5-23.5-23.5-12.957031 0-23.5 10.542969-23.5 23.5v42.5c0 4.144531 3.359375 7.5 7.5 7.5s7.5-3.355469 7.5-7.5v-42.5c0-4.6875 3.8125-8.5 8.5-8.5 4.640625 0 8.5 3.730469 8.5 8.5v271.617188h-17v-197.367188c0-4.144531-3.359375-7.5-7.5-7.5s-7.5 3.355469-7.5 7.5v242.964844l-9.542969 6.722656c-15.316406 10.78125-24.457031 28.375-24.457031 47.0625 0 7.660156 1.488281 15.105469 4.429688 22.132812 1.203124 2.875 3.988281 4.605469 6.921874 4.605469.964844 0 1.945313-.1875 2.890626-.582031 3.820312-1.597656 5.625-5.992188 4.023437-9.8125-2.167969-5.183594-3.265625-10.683594-3.265625-16.34375 0-13.8125 6.761719-26.820312 18.089844-34.800781l12.726562-8.960938c1.996094-1.40625 3.183594-3.691406 3.183594-6.132812v-34.488281h17v34.488281c0 2.4375 1.1875 4.726562 3.179688 6.132812l12.726562 8.960938c11.332031 7.980469 18.09375 20.988281 18.09375 34.800781 0 23.433594-19.066406 42.5-42.5 42.5zm0 0"/></svg>